# xmcd CD database file
#
# Track frame offsets:
#	150
#	11957
#	24802
#	35720
#	43410
#	53387
#	62560
#	74315
#	86790
#	95825
#	104445
#	116902
#	129560
#	140837
#	150772
#	161920
#	174945
#	187945
#	198897
#	210300
#	223190
#	233585
#	243757
#	254612
#	263445
#	275485
#	286760
#	296670
#	307767
#
# Disc length: 4225 seconds
#
# Revision: 1
# Processed by: cddbd v1.5.2PL0 Copyright (c) Steve Scherf et al.
# Submitted via: CDex 1.60beta1
#
DISCID=9e107f1d
DTITLE=Weldon Rogers - Tryin' To Get To You
DYEAR=1997
DGENRE=Country
TTITLE0=So Long Good Luck Goodbye
TTITLE1=Trying To Get To You
TTITLE2=The Sale Of Broken Hearts
TTITLE3=My Only Love
TTITLE4=Please Return My Broken Heart
TTITLE5=I'm Building A ?? On The Moon
TTITLE6=Dim Lights Thick Smoke And Loud Music
TTITLE7=For Always Yes Forever
TTITLE8=Everybody Wants You
TTITLE9=I Still Want You
TTITLE10=I'm Gonna Be Around
TTITLE11=If I Had One Day To Live
TTITLE12=Lying Lips And A Cheatin' Heart
TTITLE13=You Made Me Love You
TTITLE14=Talk Of The Town
TTITLE15=That Was In The Deal
TTITLE16=Bright Lights
TTITLE17=This Song Is Just For You
TTITLE18=Back Door Of Heaven
TTITLE19=Cimarron
TTITLE20=As Long As You Are Mine
TTITLE21=Living With A Heartache
TTITLE22=Our Rendezvous
TTITLE23=I'm Gonna Love Again
TTITLE24=I Lost The Moon
TTITLE25=I Haven't Seen Myself In Years
TTITLE26=Mr Mountain Lion
TTITLE27=I've Got The Yearning
TTITLE28=Would You Still Want Me
EXTD=YEAR: 1997
EXTT0=
EXTT1=
EXTT2=
EXTT3=
EXTT4=
EXTT5=
EXTT6=
EXTT7=
EXTT8=
EXTT9=
EXTT10=
EXTT11=
EXTT12=
EXTT13=
EXTT14=
EXTT15=
EXTT16=
EXTT17=
EXTT18=
EXTT19=
EXTT20=
EXTT21=
EXTT22=
EXTT23=
EXTT24=
EXTT25=
EXTT26=
EXTT27=
EXTT28=
PLAYORDER=
